<mxfile host="app.diagrams.net" modified="2023-04-25T07:57:14.190Z" agent="Mozilla/5.0 (Windows NT 10.0; Win64; x64) AppleWebKit/537.36 (KHTML, like Gecko) Chrome/112.0.0.0 Safari/537.36 Edg/112.0.1722.58" etag="yGFoNbEyI7_-7h2qMeAA" version="21.1.5" type="device">
  <diagram name="第 1 页" id="d-2SekT0oWRrDAiHW0gk">
    <mxGraphModel dx="823" dy="674" grid="1" gridSize="10" guides="1" tooltips="1" connect="1" arrows="1" fold="1" page="1" pageScale="1" pageWidth="827" pageHeight="1169" math="0" shadow="0">
      <root>
        <mxCell id="0" />
        <mxCell id="1" parent="0" />
        <mxCell id="HE3qIyfIJsHKENY5e4zm-1" value="Elevator" style="swimlane;fontStyle=1;align=center;verticalAlign=top;childLayout=stackLayout;horizontal=1;startSize=26;horizontalStack=0;resizeParent=1;resizeParentMax=0;resizeLast=0;collapsible=1;marginBottom=0;whiteSpace=wrap;html=1;" parent="1" vertex="1">
          <mxGeometry x="210" y="120" width="230" height="180" as="geometry">
            <mxRectangle x="210" y="120" width="90" height="30" as="alternateBounds" />
          </mxGeometry>
        </mxCell>
        <mxCell id="HE3qIyfIJsHKENY5e4zm-2" value="-&amp;nbsp;totalFloor&lt;span style=&quot;background-color: initial;&quot;&gt;: int&lt;/span&gt;&lt;br&gt;-&amp;nbsp;currentFloor: int&lt;br&gt;- isUp: bool&lt;br&gt;- isDown: bool" style="text;strokeColor=none;fillColor=default;align=left;verticalAlign=top;spacingLeft=4;spacingRight=4;overflow=hidden;rotatable=0;points=[[0,0.5],[1,0.5]];portConstraint=eastwest;whiteSpace=wrap;html=1;" parent="HE3qIyfIJsHKENY5e4zm-1" vertex="1">
          <mxGeometry y="26" width="230" height="64" as="geometry" />
        </mxCell>
        <mxCell id="HE3qIyfIJsHKENY5e4zm-3" value="" style="line;strokeWidth=1;fillColor=default;align=left;verticalAlign=middle;spacingTop=-1;spacingLeft=3;spacingRight=3;rotatable=0;labelPosition=right;points=[];portConstraint=eastwest;strokeColor=inherit;labelBorderColor=none;" parent="HE3qIyfIJsHKENY5e4zm-1" vertex="1">
          <mxGeometry y="90" width="230" height="8" as="geometry" />
        </mxCell>
        <mxCell id="HE3qIyfIJsHKENY5e4zm-4" value="+ Elevator(totalFloor:int)&lt;br&gt;+ setUpButton(): void&lt;br&gt;+ setDownButton(): void&lt;br&gt;+ setFloorNumber(): void&lt;br&gt;+ getCurrentFloor(): int" style="text;strokeColor=none;fillColor=default;align=left;verticalAlign=top;spacingLeft=4;spacingRight=4;overflow=hidden;rotatable=0;points=[[0,0.5],[1,0.5]];portConstraint=eastwest;whiteSpace=wrap;html=1;" parent="HE3qIyfIJsHKENY5e4zm-1" vertex="1">
          <mxGeometry y="98" width="230" height="82" as="geometry" />
        </mxCell>
        <mxCell id="wIJwUYnDV8P6VQxlKudw-1" value="AdvElevator" style="swimlane;fontStyle=1;align=center;verticalAlign=top;childLayout=stackLayout;horizontal=1;startSize=26;horizontalStack=0;resizeParent=1;resizeParentMax=0;resizeLast=0;collapsible=1;marginBottom=0;whiteSpace=wrap;html=1;" vertex="1" parent="1">
          <mxGeometry x="200" y="370" width="250" height="140" as="geometry" />
        </mxCell>
        <mxCell id="wIJwUYnDV8P6VQxlKudw-2" value="- waits: std::vector&amp;lt;person&amp;gt;&lt;br&gt;- limitWeight:&amp;nbsp; int&lt;br&gt;- sumWeight: std::vector&amp;lt;int&amp;gt;" style="text;strokeColor=none;fillColor=none;align=left;verticalAlign=top;spacingLeft=4;spacingRight=4;overflow=hidden;rotatable=0;points=[[0,0.5],[1,0.5]];portConstraint=eastwest;whiteSpace=wrap;html=1;" vertex="1" parent="wIJwUYnDV8P6VQxlKudw-1">
          <mxGeometry y="26" width="250" height="54" as="geometry" />
        </mxCell>
        <mxCell id="wIJwUYnDV8P6VQxlKudw-3" value="" style="line;strokeWidth=1;fillColor=none;align=left;verticalAlign=middle;spacingTop=-1;spacingLeft=3;spacingRight=3;rotatable=0;labelPosition=right;points=[];portConstraint=eastwest;strokeColor=inherit;" vertex="1" parent="wIJwUYnDV8P6VQxlKudw-1">
          <mxGeometry y="80" width="250" height="8" as="geometry" />
        </mxCell>
        <mxCell id="wIJwUYnDV8P6VQxlKudw-4" value="+ AdvElevator(totalFloor:int,limitWeight: int)&lt;br&gt;+ bool setFloorNumber(): const Person &amp;amp;per&lt;br&gt;+ startElevator():void" style="text;strokeColor=none;fillColor=none;align=left;verticalAlign=top;spacingLeft=4;spacingRight=4;overflow=hidden;rotatable=0;points=[[0,0.5],[1,0.5]];portConstraint=eastwest;whiteSpace=wrap;html=1;" vertex="1" parent="wIJwUYnDV8P6VQxlKudw-1">
          <mxGeometry y="88" width="250" height="52" as="geometry" />
        </mxCell>
        <mxCell id="wIJwUYnDV8P6VQxlKudw-11" value="此类中将基类的setFloorNumber() : void的访问权限&lt;br&gt;设置为了private" style="shape=note;size=20;whiteSpace=wrap;html=1;flipH=1;" vertex="1" parent="1">
          <mxGeometry x="510" y="470" width="280" height="100" as="geometry" />
        </mxCell>
        <mxCell id="wIJwUYnDV8P6VQxlKudw-15" value="" style="endArrow=open;endFill=1;endSize=12;html=1;rounded=0;entryX=1.01;entryY=0.507;entryDx=0;entryDy=0;entryPerimeter=0;" edge="1" parent="1" target="wIJwUYnDV8P6VQxlKudw-11">
          <mxGeometry width="160" relative="1" as="geometry">
            <mxPoint x="450" y="480" as="sourcePoint" />
            <mxPoint x="610" y="480" as="targetPoint" />
          </mxGeometry>
        </mxCell>
        <mxCell id="wIJwUYnDV8P6VQxlKudw-16" value="Extends" style="endArrow=block;endSize=16;endFill=0;html=1;rounded=0;exitX=0.5;exitY=0;exitDx=0;exitDy=0;entryX=0.5;entryY=1;entryDx=0;entryDy=0;" edge="1" parent="1" source="wIJwUYnDV8P6VQxlKudw-1" target="HE3qIyfIJsHKENY5e4zm-1">
          <mxGeometry width="160" relative="1" as="geometry">
            <mxPoint x="330" y="330" as="sourcePoint" />
            <mxPoint x="490" y="330" as="targetPoint" />
          </mxGeometry>
        </mxCell>
        <mxCell id="wIJwUYnDV8P6VQxlKudw-21" value="Person" style="swimlane;fontStyle=1;align=center;verticalAlign=top;childLayout=stackLayout;horizontal=1;startSize=26;horizontalStack=0;resizeParent=1;resizeParentMax=0;resizeLast=0;collapsible=1;marginBottom=0;whiteSpace=wrap;html=1;" vertex="1" parent="1">
          <mxGeometry x="510" y="120" width="280" height="190" as="geometry" />
        </mxCell>
        <mxCell id="wIJwUYnDV8P6VQxlKudw-22" value="- from: int&lt;br&gt;- target: int&lt;br&gt;- weight: int" style="text;strokeColor=none;fillColor=none;align=left;verticalAlign=top;spacingLeft=4;spacingRight=4;overflow=hidden;rotatable=0;points=[[0,0.5],[1,0.5]];portConstraint=eastwest;whiteSpace=wrap;html=1;" vertex="1" parent="wIJwUYnDV8P6VQxlKudw-21">
          <mxGeometry y="26" width="280" height="54" as="geometry" />
        </mxCell>
        <mxCell id="wIJwUYnDV8P6VQxlKudw-23" value="" style="line;strokeWidth=1;fillColor=none;align=left;verticalAlign=middle;spacingTop=-1;spacingLeft=3;spacingRight=3;rotatable=0;labelPosition=right;points=[];portConstraint=eastwest;strokeColor=inherit;" vertex="1" parent="wIJwUYnDV8P6VQxlKudw-21">
          <mxGeometry y="80" width="280" height="10" as="geometry" />
        </mxCell>
        <mxCell id="wIJwUYnDV8P6VQxlKudw-24" value="+ Person(int,int,int)&lt;br&gt;+ getFrom() const: int&lt;br&gt;+ getTarget() const: int&lt;br&gt;+ getWeight() const:int&lt;br&gt;+ operator&amp;lt;(per:const Person&amp;amp;):bool&lt;br&gt;+ operator&amp;gt;(per:const Person&amp;amp;):bool" style="text;strokeColor=none;fillColor=none;align=left;verticalAlign=top;spacingLeft=4;spacingRight=4;overflow=hidden;rotatable=0;points=[[0,0.5],[1,0.5]];portConstraint=eastwest;whiteSpace=wrap;html=1;" vertex="1" parent="wIJwUYnDV8P6VQxlKudw-21">
          <mxGeometry y="90" width="280" height="100" as="geometry" />
        </mxCell>
        <mxCell id="wIJwUYnDV8P6VQxlKudw-26" value="Relation" style="endArrow=open;html=1;endSize=12;startArrow=diamondThin;startSize=14;startFill=0;edgeStyle=orthogonalEdgeStyle;rounded=0;exitX=1.011;exitY=0.259;exitDx=0;exitDy=0;exitPerimeter=0;entryX=0.5;entryY=1;entryDx=0;entryDy=0;" edge="1" parent="1" source="wIJwUYnDV8P6VQxlKudw-2" target="wIJwUYnDV8P6VQxlKudw-21">
          <mxGeometry relative="1" as="geometry">
            <mxPoint x="450" y="330" as="sourcePoint" />
            <mxPoint x="610" y="330" as="targetPoint" />
          </mxGeometry>
        </mxCell>
        <mxCell id="wIJwUYnDV8P6VQxlKudw-27" value="0 ... totalFllor + 1" style="edgeLabel;resizable=0;html=1;align=left;verticalAlign=top;" connectable="0" vertex="1" parent="wIJwUYnDV8P6VQxlKudw-26">
          <mxGeometry x="-1" relative="1" as="geometry" />
        </mxCell>
        <mxCell id="wIJwUYnDV8P6VQxlKudw-28" value="1" style="edgeLabel;resizable=0;html=1;align=right;verticalAlign=top;" connectable="0" vertex="1" parent="wIJwUYnDV8P6VQxlKudw-26">
          <mxGeometry x="1" relative="1" as="geometry" />
        </mxCell>
      </root>
    </mxGraphModel>
  </diagram>
</mxfile>
